# xmcd
#
# Track frame offsets: 
#        150
#        15070
#        32421
#        49230
#        66259
#        88312
#        103798
#        121194
#        134748
#        150728
#        165165
#        168060
#        184852
#        199700
#        217518
#        236987
#        245394
#
# Disc length: 3476 seconds
#
# Revision: 0
# Processed by: cddbd v1.5.1PL2 Copyright (c) Steve Scherf et al.
# Submitted via: ExactAudioCopy v0.95b2
#
DISCID=d70d9211
DTITLE=Jurassic 5 - Feedback
DYEAR=2006
DGENRE=Rap
TTITLE0=Back 4 You
TTITLE1=Radio
TTITLE2=Brown Girl
TTITLE3=Gotta Understand
TTITLE4=In The House
TTITLE5=Baby Please
TTITLE6=Work It Out
TTITLE7=Where We At
TTITLE8=Get It Together
TTITLE9=Future Sound
TTITLE10=J Resume (Skit)
TTITLE11=Red Hot
TTITLE12=Turn It Out
TTITLE13=End Up Like This
TTITLE14=Canto De Ossanha
TTITLE15=Concrete Schoolyard (Live at Brixton Academy)
TTITLE16=A Day At the Races (Live at Brixton Academy)
EXTD=
EXTT0=
EXTT1=
EXTT2=
EXTT3=
EXTT4=
EXTT5=
EXTT6=
EXTT7=
EXTT8=
EXTT9=
EXTT10=
EXTT11=
EXTT12=
EXTT13=
EXTT14=
EXTT15=
EXTT16=
PLAYORDER=
